<?xml version="1.0" encoding="UTF-8"?>
<svg xmlns="http://www.w3.org/2000/svg" xmlns:xlink="http://www.w3.org/1999/xlink" width="800" height="150" viewBox="0 0 800 150">
<path fill-rule="evenodd" fill="rgb(94.117647%, 48.627451%, 0%)" fill-opacity="1" d="M 100.816406 125.832031 L 14.484375 19.535156 L 56.261719 19.265625 L 99.933594 71.335938 Z M 100.816406 125.832031 "/>
<path fill-rule="evenodd" fill="rgb(94.117647%, 48.627451%, 0%)" fill-opacity="1" d="M 103.769531 97.101562 C 103.671875 106.949219 103.570312 116.792969 103.472656 126.640625 C 115.277344 126.597656 127.082031 126.550781 138.882812 126.507812 C 123.433594 123.195312 110.050781 112.28125 103.769531 97.101562 Z M 103.769531 97.101562 "/>
<path fill-rule="evenodd" fill="rgb(94.117647%, 48.627451%, 0%)" fill-opacity="1" d="M 103.695312 44.964844 L 103.03125 20.074219 L 186.980469 19.398438 C 187.128906 26.863281 187.277344 34.328125 187.425781 41.792969 C 164.113281 18.625 130.671875 10.5625 103.695312 44.964844 Z M 103.695312 44.964844 "/>
<path fill-rule="evenodd" fill="rgb(94.117647%, 48.627451%, 0%)" fill-opacity="1" d="M 151.425781 126.238281 C 191.988281 114.878906 192.5625 84.742188 170.285156 64.519531 C 157.085938 52.539062 139.417969 44.539062 146.792969 23.652344 C 108.652344 31.773438 104.347656 50.917969 121.898438 78.148438 C 129.203125 89.484375 155.3125 99.511719 151.425781 126.238281 Z M 151.425781 126.238281 "/>
<path fill-rule="evenodd" fill="rgb(6.27451%, 16.470589%, 51.372552%)" fill-opacity="1" d="M 246.464844 45.738281 L 254.160156 24.996094 C 254.226562 24.824219 254.261719 24.628906 254.261719 24.429688 C 254.261719 23.714844 253.410156 23.136719 251.730469 22.707031 C 250.660156 22.421875 250.132812 22.148438 250.132812 21.882812 C 250.132812 21.761719 250.152344 21.632812 250.183594 21.515625 L 250.183594 21.085938 C 250.183594 20.296875 250.253906 19.792969 250.40625 19.589844 C 250.558594 19.390625 250.949219 19.289062 251.613281 19.289062 L 263.855469 19.289062 C 264.414062 19.289062 264.757812 19.371094 264.875 19.535156 C 264.992188 19.710938 265.042969 20.140625 265.042969 20.855469 C 265.042969 21.679688 265.011719 22.195312 264.941406 22.386719 C 264.875 22.585938 264.652344 22.742188 264.246094 22.863281 C 263.261719 23.21875 262.632812 23.53125 262.363281 23.796875 C 262.105469 24.054688 261.765625 24.710938 261.375 25.765625 L 248.4375 60.679688 L 247.636719 62.804688 C 247.570312 62.996094 247.230469 63.097656 246.601562 63.097656 L 236.601562 63.097656 C 236.175781 63.097656 235.835938 62.988281 235.617188 62.777344 C 235.378906 62.554688 235.054688 61.859375 234.613281 60.679688 L 221.640625 24.988281 C 221.332031 24.089844 220.535156 23.441406 219.226562 23.027344 C 218.546875 22.816406 218.140625 22.652344 217.988281 22.53125 C 217.851562 22.421875 217.765625 22.175781 217.765625 21.808594 C 217.765625 21.679688 217.785156 21.5625 217.820312 21.433594 C 217.851562 21.242188 217.871094 21.058594 217.871094 20.882812 C 217.871094 20.753906 217.851562 20.644531 217.820312 20.535156 L 217.820312 20.167969 C 217.820312 19.582031 218.226562 19.289062 219.007812 19.289062 L 241.558594 19.289062 C 242.324219 19.289062 242.714844 19.65625 242.714844 20.398438 C 242.714844 20.417969 242.679688 20.929688 242.613281 21.9375 C 242.542969 22.167969 242.203125 22.359375 241.574219 22.515625 C 240.132812 22.890625 239.402344 23.496094 239.402344 24.320312 C 239.402344 24.519531 239.453125 24.742188 239.554688 24.996094 Z M 284.625 53.367188 L 272.195312 53.367188 L 271.617188 55.8125 C 271.617188 55.867188 271.582031 55.953125 271.515625 56.0625 C 271.242188 56.574219 271.105469 57.03125 271.105469 57.445312 C 271.105469 58.085938 271.871094 58.636719 273.417969 59.085938 C 274.230469 59.3125 274.742188 59.5625 274.945312 59.808594 C 275.132812 60.054688 275.234375 60.46875 275.234375 61.042969 C 275.234375 61.777344 275.164062 62.21875 275.011719 62.375 C 274.859375 62.527344 274.503906 62.601562 273.941406 62.601562 L 260.832031 62.601562 C 260.101562 62.601562 259.746094 62.191406 259.746094 61.367188 C 259.746094 60.386719 260.339844 59.578125 261.511719 58.972656 C 262.617188 58.414062 263.242188 57.828125 263.414062 57.207031 L 272.636719 25.621094 C 272.804688 25.132812 272.890625 24.710938 272.890625 24.355469 C 272.890625 23.804688 272.160156 23.3125 270.734375 22.878906 C 270.070312 22.671875 269.730469 22.195312 269.730469 21.460938 C 269.730469 20.480469 269.832031 19.867188 270.035156 19.636719 C 270.222656 19.410156 270.765625 19.289062 271.617188 19.289062 L 290.652344 19.289062 C 291.808594 19.289062 292.621094 19.582031 293.097656 20.179688 C 293.554688 20.765625 294.015625 22.046875 294.492188 24.035156 C 294.675781 24.804688 294.882812 25.566406 295.085938 26.316406 L 303.253906 55.804688 C 303.644531 57.242188 304.59375 58.332031 306.105469 59.085938 C 306.53125 59.277344 306.800781 59.433594 306.9375 59.550781 C 307.058594 59.671875 307.125 60.019531 307.125 60.613281 C 307.125 61.53125 307.003906 62.089844 306.785156 62.289062 C 306.546875 62.5 306.054688 62.601562 305.289062 62.601562 L 283.25 62.601562 C 282.585938 62.601562 282.261719 62.261719 282.261719 61.585938 C 282.261719 60.722656 282.347656 60.183594 282.519531 59.972656 C 282.6875 59.753906 283.164062 59.507812 283.960938 59.210938 C 285.132812 58.820312 285.726562 58.316406 285.726562 57.710938 C 285.726562 57.085938 285.355469 55.640625 284.625 53.367188 Z M 278.644531 29.429688 L 273.027344 50.289062 L 284.0625 50.289062 Z M 332.597656 43.527344 L 332.597656 56.847656 C 332.597656 57.480469 332.664062 57.902344 332.816406 58.113281 C 332.953125 58.324219 333.359375 58.554688 334.039062 58.78125 C 334.90625 59.09375 335.347656 59.597656 335.347656 60.320312 C 335.347656 61.355469 335.179688 61.996094 334.820312 62.234375 C 334.480469 62.484375 333.855469 62.601562 332.917969 62.601562 L 311.964844 62.601562 C 310.777344 62.601562 310.179688 62.136719 310.179688 61.199219 C 310.179688 60.3125 310.230469 59.726562 310.335938 59.46875 C 310.4375 59.210938 310.757812 59.03125 311.320312 58.917969 C 313.136719 58.527344 314.050781 57.757812 314.050781 56.609375 L 314.050781 25.152344 C 314.050781 23.988281 313.253906 23.273438 311.660156 23.027344 C 310.878906 22.890625 310.367188 22.742188 310.179688 22.605469 C 309.976562 22.460938 309.875 22.046875 309.875 21.359375 C 309.875 19.976562 310.570312 19.289062 311.964844 19.289062 L 339.507812 19.289062 C 344.976562 19.289062 349.867188 20.398438 354.164062 22.613281 C 358.460938 24.832031 360.617188 27.808594 360.617188 31.546875 C 360.617188 36.859375 355.589844 40.332031 345.519531 41.960938 C 354.707031 43.054688 359.292969 46.195312 359.292969 51.378906 L 359.292969 57.765625 C 359.292969 58.304688 359.664062 58.699219 360.414062 58.972656 C 361.296875 59.296875 361.738281 59.789062 361.738281 60.449219 C 361.738281 61.492188 361.617188 62.109375 361.398438 62.308594 C 361.160156 62.5 360.546875 62.601562 359.5625 62.601562 L 346.300781 62.601562 C 344.703125 62.601562 343.414062 62.117188 342.378906 61.136719 C 341.359375 60.164062 340.851562 58.957031 340.851562 57.527344 L 340.851562 46.699219 C 340.851562 44.582031 338.847656 43.527344 334.855469 43.527344 Z M 332.597656 22.367188 L 332.597656 40.394531 L 335.875 40.394531 C 339.183594 40.394531 340.851562 38.617188 340.851562 35.074219 L 340.851562 26.460938 C 340.851562 24.960938 340.324219 23.90625 339.269531 23.292969 C 338.199219 22.679688 336.554688 22.367188 334.3125 22.367188 Z M 368.613281 56.664062 L 368.613281 24.164062 C 368.511719 23.804688 367.917969 23.539062 366.832031 23.355469 C 365.964844 23.210938 365.390625 23 365.082031 22.726562 C 364.792969 22.449219 364.640625 21.84375 364.640625 20.929688 C 364.640625 20.269531 364.863281 19.832031 365.285156 19.609375 C 365.726562 19.398438 366.832031 19.289062 368.632812 19.289062 L 392.492188 19.289062 C 399.300781 19.289062 404.9375 20.984375 409.40625 24.363281 C 413.871094 27.746094 416.097656 33.359375 416.097656 41.210938 C 416.097656 48.367188 413.9375 53.726562 409.625 57.28125 C 405.296875 60.824219 399.589844 62.601562 392.472656 62.601562 L 366.167969 62.601562 C 365.441406 62.601562 364.945312 62.511719 364.660156 62.316406 C 364.371094 62.136719 364.234375 61.722656 364.234375 61.082031 C 364.234375 60.320312 364.285156 59.835938 364.386719 59.644531 C 364.488281 59.441406 364.964844 59.222656 365.832031 58.972656 C 367.679688 58.453125 368.613281 57.683594 368.613281 56.664062 Z M 387.160156 22.476562 L 387.160156 59.632812 L 389.808594 59.632812 C 391.675781 59.632812 393.035156 59.222656 393.902344 58.386719 C 394.765625 57.554688 395.207031 56.070312 395.207031 53.945312 L 395.207031 26.527344 C 395.207031 25.328125 394.679688 24.355469 393.613281 23.605469 C 392.542969 22.851562 391.03125 22.476562 389.0625 22.476562 Z M 442.636719 37.867188 L 450.585938 37.867188 L 450.585938 24.363281 C 450.585938 23.933594 450.519531 23.648438 450.363281 23.511719 C 450.230469 23.367188 449.839844 23.183594 449.191406 22.972656 C 448.496094 22.753906 448.140625 22.257812 448.140625 21.46875 C 448.140625 20.460938 448.226562 19.847656 448.394531 19.628906 C 448.546875 19.398438 449.023438 19.289062 449.769531 19.289062 L 471.269531 19.289062 C 472.238281 19.289062 472.816406 19.382812 473.019531 19.574219 C 473.207031 19.757812 473.308594 20.371094 473.308594 21.398438 C 473.308594 22.019531 473.207031 22.394531 472.984375 22.503906 C 472.765625 22.625 472.101562 22.835938 470.964844 23.136719 C 469.742188 23.496094 469.128906 24.054688 469.128906 24.804688 L 469.128906 56.957031 C 469.128906 57.800781 469.84375 58.46875 471.269531 58.972656 C 472.421875 59.367188 473 59.714844 473 60.035156 L 473 61.722656 C 473 62.078125 472.898438 62.308594 472.710938 62.429688 C 472.507812 62.546875 471.929688 62.601562 470.980469 62.601562 L 449.414062 62.601562 C 448.699219 62.601562 448.242188 62.527344 448.089844 62.390625 C 447.917969 62.246094 447.835938 61.585938 447.835938 60.414062 C 447.835938 59.828125 448.257812 59.367188 449.109375 59.03125 C 450.09375 58.636719 450.585938 58.175781 450.585938 57.65625 L 450.585938 40.890625 L 442.636719 40.890625 L 442.636719 57.773438 C 442.636719 58.34375 443.0625 58.800781 443.910156 59.140625 C 444.761719 59.515625 445.183594 60.046875 445.183594 60.734375 C 445.183594 61.695312 445.082031 62.246094 444.878906 62.382812 C 444.691406 62.527344 444.285156 62.601562 443.691406 62.601562 L 421.871094 62.601562 C 421.171875 62.601562 420.730469 62.519531 420.578125 62.363281 C 420.410156 62.199219 420.324219 61.566406 420.324219 60.46875 C 420.324219 59.953125 420.410156 59.617188 420.578125 59.449219 C 420.75 59.296875 421.207031 59.09375 421.988281 58.863281 C 423.398438 58.46875 424.09375 57.9375 424.09375 57.28125 L 424.09375 24.832031 C 424.09375 24.320312 423.464844 23.824219 422.210938 23.355469 C 420.953125 22.871094 420.324219 22.183594 420.324219 21.285156 C 420.324219 20.332031 420.460938 19.757812 420.75 19.574219 C 421.039062 19.382812 421.648438 19.289062 422.617188 19.289062 L 443.046875 19.289062 C 443.945312 19.289062 444.558594 19.371094 444.898438 19.546875 C 445.21875 19.710938 445.390625 20.113281 445.390625 20.738281 L 445.390625 22 C 445.320312 22.320312 444.914062 22.613281 444.167969 22.863281 C 443.148438 23.164062 442.636719 23.667969 442.636719 24.363281 Z M 500.035156 53.367188 L 487.605469 53.367188 L 487.027344 55.8125 C 487.027344 55.867188 486.996094 55.953125 486.925781 56.0625 C 486.65625 56.574219 486.519531 57.03125 486.519531 57.445312 C 486.519531 58.085938 487.28125 58.636719 488.828125 59.085938 C 489.644531 59.3125 490.152344 59.5625 490.355469 59.808594 C 490.542969 60.054688 490.644531 60.46875 490.644531 61.042969 C 490.644531 61.777344 490.578125 62.21875 490.425781 62.375 C 490.269531 62.527344 489.914062 62.601562 489.355469 62.601562 L 476.246094 62.601562 C 475.515625 62.601562 475.160156 62.191406 475.160156 61.367188 C 475.160156 60.386719 475.753906 59.578125 476.925781 58.972656 C 478.027344 58.414062 478.65625 57.828125 478.824219 57.207031 L 488.046875 25.621094 C 488.21875 25.132812 488.300781 24.710938 488.300781 24.355469 C 488.300781 23.804688 487.570312 23.3125 486.144531 22.878906 C 485.484375 22.671875 485.144531 22.195312 485.144531 21.460938 C 485.144531 20.480469 485.246094 19.867188 485.449219 19.636719 C 485.636719 19.410156 486.179688 19.289062 487.027344 19.289062 L 506.0625 19.289062 C 507.21875 19.289062 508.035156 19.582031 508.507812 20.179688 C 508.96875 20.765625 509.425781 22.046875 509.902344 24.035156 C 510.089844 24.804688 510.292969 25.566406 510.496094 26.316406 L 518.664062 55.804688 C 519.054688 57.242188 520.007812 58.332031 521.519531 59.085938 C 521.941406 59.277344 522.214844 59.433594 522.351562 59.550781 C 522.46875 59.671875 522.535156 60.019531 522.535156 60.613281 C 522.535156 61.53125 522.417969 62.089844 522.195312 62.289062 C 521.960938 62.5 521.464844 62.601562 520.703125 62.601562 L 498.660156 62.601562 C 498 62.601562 497.675781 62.261719 497.675781 61.585938 C 497.675781 60.722656 497.761719 60.183594 497.929688 59.972656 C 498.101562 59.753906 498.574219 59.507812 499.375 59.210938 C 500.546875 58.820312 501.140625 58.316406 501.140625 57.710938 C 501.140625 57.085938 500.765625 55.640625 500.035156 53.367188 Z M 494.058594 29.429688 L 488.4375 50.289062 L 499.476562 50.289062 Z M 561.78125 19.289062 L 579.457031 19.289062 C 580.648438 19.289062 581.429688 19.382812 581.800781 19.574219 C 582.160156 19.757812 582.34375 20.234375 582.34375 21.003906 C 582.34375 21.699219 582.226562 22.183594 581.972656 22.460938 C 581.71875 22.734375 581.089844 23 580.105469 23.246094 C 579.222656 23.457031 578.660156 23.695312 578.421875 23.941406 C 578.183594 24.199219 578.066406 24.601562 578.066406 25.179688 L 578.066406 57.050781 C 578.066406 57.507812 578.167969 57.847656 578.371094 58.066406 C 578.574219 58.277344 579.136719 58.507812 580.054688 58.734375 C 581.308594 59.058594 581.9375 59.496094 581.9375 60.054688 C 581.9375 61.449219 581.851562 62.226562 581.683594 62.375 C 581.53125 62.527344 580.9375 62.601562 579.949219 62.601562 L 557.703125 62.601562 C 556.738281 62.601562 556.261719 62.164062 556.261719 61.28125 C 556.261719 60.53125 556.3125 59.972656 556.414062 59.605469 C 556.515625 59.238281 557.128906 58.945312 558.25 58.707031 C 559.503906 58.441406 560.132812 57.964844 560.132812 57.289062 L 560.132812 34.679688 L 551.132812 52.929688 L 545.648438 52.929688 L 536.800781 35.246094 L 536.800781 57.207031 C 536.800781 57.921875 537.394531 58.453125 538.582031 58.792969 C 540.042969 59.183594 540.773438 59.882812 540.773438 60.878906 C 540.773438 62.023438 540.042969 62.601562 538.601562 62.601562 L 527.835938 62.601562 C 526.613281 62.601562 526 62.050781 526 60.960938 C 526 60.191406 526.511719 59.605469 527.527344 59.195312 C 528.292969 58.855469 528.769531 58.582031 528.972656 58.378906 C 529.160156 58.167969 529.261719 57.8125 529.261719 57.289062 L 529.261719 26.277344 C 529.261719 25.417969 529.125 24.757812 528.835938 24.308594 C 528.566406 23.851562 527.953125 23.476562 527.035156 23.191406 C 526.035156 22.90625 525.542969 22.613281 525.542969 22.3125 L 525.59375 21.160156 C 525.628906 20.324219 525.730469 19.800781 525.914062 19.601562 C 526.101562 19.390625 526.542969 19.289062 527.242188 19.289062 L 545.648438 19.289062 L 553.648438 35.863281 Z M 608.292969 53.367188 L 595.863281 53.367188 L 595.285156 55.8125 C 595.285156 55.867188 595.253906 55.953125 595.183594 56.0625 C 594.914062 56.574219 594.777344 57.03125 594.777344 57.445312 C 594.777344 58.085938 595.539062 58.636719 597.085938 59.085938 C 597.902344 59.3125 598.410156 59.5625 598.613281 59.808594 C 598.800781 60.054688 598.902344 60.46875 598.902344 61.042969 C 598.902344 61.777344 598.835938 62.21875 598.683594 62.375 C 598.53125 62.527344 598.171875 62.601562 597.613281 62.601562 L 584.503906 62.601562 C 583.773438 62.601562 583.414062 62.191406 583.414062 61.367188 C 583.414062 60.386719 584.011719 59.578125 585.183594 58.972656 C 586.285156 58.414062 586.914062 57.828125 587.082031 57.207031 L 596.304688 25.621094 C 596.476562 25.132812 596.558594 24.710938 596.558594 24.355469 C 596.558594 23.804688 595.828125 23.3125 594.402344 22.878906 C 593.742188 22.671875 593.402344 22.195312 593.402344 21.460938 C 593.402344 20.480469 593.503906 19.867188 593.707031 19.636719 C 593.894531 19.410156 594.4375 19.289062 595.285156 19.289062 L 614.320312 19.289062 C 615.476562 19.289062 616.292969 19.582031 616.765625 20.179688 C 617.226562 20.765625 617.683594 22.046875 618.160156 24.035156 C 618.347656 24.804688 618.550781 25.566406 618.753906 26.316406 L 626.921875 55.804688 C 627.3125 57.242188 628.265625 58.332031 629.773438 59.085938 C 630.199219 59.277344 630.472656 59.433594 630.609375 59.550781 C 630.726562 59.671875 630.792969 60.019531 630.792969 60.613281 C 630.792969 61.53125 630.675781 62.089844 630.453125 62.289062 C 630.21875 62.5 629.722656 62.601562 628.960938 62.601562 L 606.917969 62.601562 C 606.257812 62.601562 605.933594 62.261719 605.933594 61.585938 C 605.933594 60.722656 606.019531 60.183594 606.1875 59.972656 C 606.359375 59.753906 606.832031 59.507812 607.632812 59.210938 C 608.804688 58.820312 609.398438 58.316406 609.398438 57.710938 C 609.398438 57.085938 609.023438 55.640625 608.292969 53.367188 Z M 602.316406 29.429688 L 596.695312 50.289062 L 607.734375 50.289062 Z M 645.671875 38.042969 L 645.671875 56.988281 C 645.671875 57.773438 646.503906 58.359375 648.167969 58.753906 C 649.558594 59.09375 650.253906 59.578125 650.253906 60.210938 C 650.253906 61.519531 650.203125 62.246094 650.085938 62.390625 C 649.964844 62.527344 649.472656 62.601562 648.625 62.601562 L 635.445312 62.601562 C 634.785156 62.601562 634.359375 62.464844 634.207031 62.191406 C 634.039062 61.90625 633.953125 61.226562 633.953125 60.128906 C 633.953125 59.632812 634.394531 59.277344 635.277344 59.085938 C 636.976562 58.671875 637.824219 58.203125 637.824219 57.691406 L 637.824219 25.984375 C 637.824219 25.214844 637.6875 24.640625 637.433594 24.253906 C 637.179688 23.871094 636.601562 23.550781 635.683594 23.300781 C 634.871094 23.082031 634.34375 22.851562 634.054688 22.605469 C 633.78125 22.347656 633.648438 21.871094 633.648438 21.175781 C 633.648438 19.921875 634.257812 19.289062 635.464844 19.289062 L 649.167969 19.289062 L 665.945312 40.394531 L 665.945312 24.8125 C 665.945312 23.953125 665.148438 23.328125 663.535156 22.972656 C 662.582031 22.742188 661.957031 22.476562 661.683594 22.175781 C 661.394531 21.882812 661.257812 21.304688 661.257812 20.445312 C 661.257812 19.902344 661.359375 19.582031 661.566406 19.464844 C 661.75 19.34375 662.140625 19.289062 662.703125 19.289062 L 676.421875 19.289062 C 677.1875 19.34375 677.5625 19.929688 677.5625 21.046875 C 677.5625 21.707031 677.492188 22.121094 677.339844 22.304688 C 677.1875 22.476562 676.847656 22.625 676.320312 22.753906 C 675.167969 23 674.4375 23.246094 674.132812 23.476562 C 673.84375 23.714844 673.691406 24.035156 673.691406 24.449219 L 673.691406 62.601562 L 665.199219 62.601562 Z M 316.3125 85.742188 C 316.515625 85.652344 317.078125 85.246094 318.011719 84.523438 C 318.605469 84.058594 319.386719 83.820312 320.386719 83.820312 C 320.609375 83.820312 321.542969 83.882812 323.171875 84.011719 C 323.496094 84.183594 323.75 84.5625 323.902344 85.136719 L 326.585938 94.242188 C 326.722656 94.730469 326.789062 95.011719 326.789062 95.105469 C 326.789062 95.445312 326.621094 95.671875 326.261719 95.773438 C 325.921875 95.882812 325.007812 95.9375 323.511719 95.9375 C 321.832031 95.9375 320.726562 95.820312 320.234375 95.589844 C 319.742188 95.359375 318.792969 94.390625 317.398438 92.695312 C 314.460938 89.105469 311.828125 87.308594 309.503906 87.308594 C 307.855469 87.308594 307.023438 87.933594 307.023438 89.1875 C 307.023438 90.746094 309.519531 93.792969 314.511719 98.355469 C 320.25 103.613281 323.96875 107.417969 325.71875 109.769531 C 327.453125 112.117188 328.316406 114.753906 328.316406 117.667969 C 328.316406 121.121094 326.804688 123.761719 323.800781 125.601562 C 320.792969 127.441406 317.398438 128.367188 313.644531 128.367188 C 311.25 128.367188 308.957031 128 306.75 127.257812 C 305.882812 126.964844 305.207031 126.828125 304.714844 126.828125 C 304.273438 126.828125 303.933594 126.992188 303.660156 127.34375 C 303.132812 128.027344 301.84375 128.367188 299.804688 128.367188 C 299.007812 128.367188 298.464844 128.304688 298.191406 128.167969 C 297.902344 128.027344 297.699219 127.679688 297.5625 127.105469 L 295.085938 118.164062 C 294.761719 117.019531 294.59375 116.414062 294.59375 116.339844 C 294.59375 115.816406 295.476562 115.5625 297.222656 115.5625 C 299.585938 115.5625 300.996094 115.734375 301.417969 116.074219 C 301.859375 116.414062 302.472656 117.183594 303.253906 118.402344 C 306.15625 122.734375 309.078125 124.90625 312.015625 124.90625 C 313.101562 124.90625 313.984375 124.695312 314.664062 124.265625 C 315.34375 123.832031 315.683594 123.292969 315.683594 122.652344 C 315.683594 121.523438 314.9375 120.1875 313.425781 118.640625 C 311.929688 117.101562 310.078125 115.378906 307.90625 113.480469 C 302.675781 108.9375 298.992188 105.308594 296.816406 102.609375 C 294.660156 99.894531 293.574219 97.128906 293.574219 94.308594 C 293.574219 91.121094 294.863281 88.582031 297.445312 86.6875 C 300.027344 84.789062 303.183594 83.847656 306.921875 83.847656 C 309.519531 83.847656 312.644531 84.476562 316.3125 85.742188 Z M 333.207031 84.5625 L 354.742188 84.5625 C 355.472656 84.5625 355.945312 84.644531 356.132812 84.816406 C 356.335938 84.980469 356.4375 85.511719 356.4375 86.382812 C 356.4375 87.261719 355.964844 87.847656 355.011719 88.132812 C 354.28125 88.34375 353.789062 88.574219 353.550781 88.800781 C 353.296875 89.039062 353.179688 89.488281 353.179688 90.148438 L 353.179688 120.214844 C 353.179688 121.039062 353.621094 121.707031 354.503906 122.210938 C 355.371094 122.726562 356.488281 122.980469 357.847656 122.980469 C 359.089844 122.980469 360.160156 122.699219 361.023438 122.121094 C 361.90625 121.550781 362.347656 120.910156 362.347656 120.214844 L 362.347656 90.148438 C 362.347656 89.636719 362.265625 89.269531 362.078125 89.058594 C 361.890625 88.855469 361.429688 88.601562 360.703125 88.296875 C 359.5625 87.832031 358.988281 87.117188 358.988281 86.144531 C 358.988281 85.394531 359.140625 84.945312 359.460938 84.789062 C 359.765625 84.632812 360.226562 84.5625 360.820312 84.5625 L 371.570312 84.5625 C 372.757812 84.5625 373.351562 84.882812 373.351562 85.523438 L 373.351562 86.804688 C 373.351562 87.371094 373.285156 87.730469 373.148438 87.886719 C 373.03125 88.03125 372.640625 88.171875 372.011719 88.296875 C 370.464844 88.582031 369.683594 89.167969 369.683594 90.046875 L 369.683594 119.34375 C 369.683594 122.121094 368.207031 124.320312 365.234375 125.941406 C 362.28125 127.5625 358.152344 128.367188 352.855469 128.367188 C 346.929688 128.367188 342.414062 127.507812 339.304688 125.792969 C 336.195312 124.070312 334.632812 121.597656 334.632812 118.355469 L 334.632812 90.074219 C 334.632812 89.324219 333.90625 88.765625 332.425781 88.40625 C 331.679688 88.226562 331.238281 88.058594 331.085938 87.914062 C 330.933594 87.757812 330.863281 87.429688 330.863281 86.925781 C 330.863281 85.890625 330.984375 85.230469 331.222656 84.964844 C 331.441406 84.699219 332.105469 84.5625 333.207031 84.5625 Z M 398.773438 108.800781 L 398.773438 122.121094 C 398.773438 122.753906 398.839844 123.171875 398.996094 123.382812 C 399.128906 123.59375 399.539062 123.824219 400.21875 124.054688 C 401.082031 124.363281 401.523438 124.867188 401.523438 125.59375 C 401.523438 126.628906 401.355469 127.269531 401 127.507812 C 400.660156 127.753906 400.03125 127.875 399.097656 127.875 L 378.140625 127.875 C 376.953125 127.875 376.359375 127.40625 376.359375 126.472656 C 376.359375 125.582031 376.410156 124.996094 376.511719 124.738281 C 376.613281 124.484375 376.9375 124.300781 377.496094 124.191406 C 379.3125 123.796875 380.230469 123.027344 380.230469 121.882812 L 380.230469 90.421875 C 380.230469 89.261719 379.433594 88.546875 377.835938 88.296875 C 377.054688 88.160156 376.546875 88.015625 376.359375 87.878906 C 376.152344 87.730469 376.050781 87.316406 376.050781 86.632812 C 376.050781 85.246094 376.75 84.5625 378.140625 84.5625 L 405.683594 84.5625 C 411.152344 84.5625 416.042969 85.667969 420.339844 87.886719 C 424.636719 90.101562 426.792969 93.082031 426.792969 96.816406 C 426.792969 102.132812 421.765625 105.601562 411.695312 107.234375 C 420.882812 108.324219 425.46875 111.464844 425.46875 116.652344 L 425.46875 123.035156 C 425.46875 123.578125 425.84375 123.972656 426.589844 124.246094 C 427.472656 124.566406 427.914062 125.0625 427.914062 125.71875 C 427.914062 126.765625 427.796875 127.378906 427.574219 127.582031 C 427.335938 127.773438 426.726562 127.875 425.742188 127.875 L 412.476562 127.875 C 410.882812 127.875 409.589844 127.386719 408.554688 126.40625 C 407.535156 125.4375 407.027344 124.226562 407.027344 122.796875 L 407.027344 111.96875 C 407.027344 109.855469 405.023438 108.800781 401.03125 108.800781 Z M 398.773438 87.640625 L 398.773438 105.667969 L 402.050781 105.667969 C 405.363281 105.667969 407.027344 103.890625 407.027344 100.34375 L 407.027344 91.734375 C 407.027344 90.230469 406.5 89.179688 405.449219 88.5625 C 404.378906 87.949219 402.730469 87.640625 400.488281 87.640625 Z M 466.597656 125.253906 C 463.609375 127.332031 459.925781 128.367188 455.542969 128.367188 C 448.699219 128.367188 443.113281 126.207031 438.765625 121.871094 C 434.417969 117.539062 432.246094 112.410156 432.246094 106.472656 C 432.246094 99.742188 434.707031 94.289062 439.613281 90.113281 C 444.523438 85.933594 450.332031 83.847656 457.039062 83.847656 C 460.246094 83.847656 463.101562 84.296875 465.597656 85.183594 C 466.394531 85.457031 467.007812 85.585938 467.429688 85.585938 C 468.042969 85.585938 468.550781 85.285156 468.976562 84.679688 C 469.382812 84.121094 470.082031 83.847656 471.066406 83.847656 L 471.675781 83.847656 L 473.253906 83.902344 C 474.324219 83.992188 474.988281 84.394531 475.257812 85.109375 L 478.433594 93.65625 C 478.773438 94.535156 478.925781 95.132812 478.925781 95.433594 C 478.925781 96.066406 478.0625 96.378906 476.296875 96.378906 C 474.5625 96.378906 473.460938 96.242188 472.949219 95.976562 C 472.457031 95.710938 471.457031 94.765625 469.960938 93.144531 C 467.972656 90.964844 466.226562 89.445312 464.714844 88.589844 C 463.203125 87.738281 461.589844 87.308594 459.855469 87.308594 C 455.304688 87.308594 453.03125 89.261719 453.03125 93.152344 L 453.03125 121.964844 C 453.03125 124.070312 454.289062 125.125 456.78125 125.125 C 459.515625 125.125 460.875 124.070312 460.875 121.964844 L 460.875 107.929688 C 460.875 107.023438 460.28125 106.429688 459.109375 106.164062 C 457.835938 105.878906 457.207031 105.292969 457.207031 104.414062 C 457.207031 103.460938 457.378906 102.890625 457.699219 102.707031 C 458.039062 102.515625 458.753906 102.425781 459.839844 102.425781 L 480.914062 102.425781 C 481.933594 102.425781 482.628906 102.523438 482.96875 102.71875 C 483.324219 102.917969 483.496094 103.367188 483.496094 104.0625 C 483.496094 104.796875 483.394531 105.292969 483.171875 105.539062 C 482.953125 105.796875 482.441406 105.996094 481.609375 106.164062 C 480.421875 106.390625 479.828125 106.886719 479.828125 107.636719 L 479.828125 125.894531 C 479.828125 126.992188 479.691406 127.671875 479.4375 127.957031 C 479.164062 128.230469 478.46875 128.367188 477.347656 128.367188 C 476.3125 128.367188 475.582031 128.332031 475.125 128.25 C 474.683594 128.167969 474.054688 127.917969 473.253906 127.507812 C 471.046875 126.34375 468.824219 125.59375 466.597656 125.253906 Z M 486.195312 86.804688 L 486.195312 85.386719 C 486.195312 84.835938 486.738281 84.5625 487.84375 84.5625 L 511.667969 84.5625 C 512.570312 84.5625 513.144531 84.625 513.417969 84.753906 C 513.671875 84.871094 513.808594 85.246094 513.808594 85.878906 C 513.808594 86.824219 513.722656 87.417969 513.535156 87.648438 C 513.347656 87.878906 512.941406 88.023438 512.3125 88.078125 C 510.257812 88.269531 509.222656 88.984375 509.222656 90.203125 L 509.222656 122.523438 C 509.222656 123.199219 509.96875 123.742188 511.464844 124.136719 C 512.433594 124.382812 513.007812 124.601562 513.195312 124.796875 C 513.398438 124.988281 513.503906 125.316406 513.503906 125.792969 L 513.503906 126.820312 C 513.503906 127.378906 513.398438 127.699219 513.195312 127.773438 C 513.007812 127.835938 512.484375 127.875 511.667969 127.875 L 487.382812 127.875 C 486.449219 127.875 485.992188 127.671875 485.992188 127.277344 C 485.992188 125.996094 486.078125 125.207031 486.246094 124.914062 C 486.398438 124.628906 486.992188 124.410156 487.980469 124.246094 C 489.777344 123.980469 490.679688 123.464844 490.679688 122.714844 L 490.679688 90.84375 C 490.679688 90.09375 490.507812 89.527344 490.1875 89.140625 C 489.847656 88.757812 489.117188 88.4375 487.996094 88.1875 C 487.164062 87.996094 486.652344 87.820312 486.46875 87.667969 C 486.28125 87.519531 486.195312 87.226562 486.195312 86.804688 Z M 548.960938 83.847656 L 551.539062 83.847656 C 552.136719 83.847656 552.578125 83.964844 552.882812 84.210938 C 553.171875 84.449219 553.390625 85.101562 553.527344 86.15625 L 554.664062 94.785156 C 554.699219 94.957031 554.714844 95.132812 554.714844 95.296875 C 554.714844 95.921875 554.511719 96.359375 554.121094 96.605469 C 553.714844 96.855469 552.917969 96.984375 551.710938 96.984375 C 550.25 96.984375 549.230469 96.78125 548.671875 96.367188 C 548.109375 95.957031 547.550781 94.976562 547.023438 93.4375 C 545.699219 89.535156 543.796875 87.582031 541.335938 87.582031 C 539.28125 87.582031 538.261719 88.984375 538.261719 91.796875 L 538.261719 122.011719 C 538.261719 124.015625 539.347656 125.015625 541.503906 125.015625 C 544.238281 125.015625 545.785156 123.347656 546.105469 120.003906 C 546.207031 119.042969 546.546875 118.363281 547.160156 117.988281 C 547.753906 117.613281 548.976562 117.429688 550.828125 117.429688 C 552.21875 117.429688 553.1875 117.566406 553.75 117.84375 C 554.292969 118.125 554.5625 118.667969 554.5625 119.464844 C 554.5625 122.019531 553.136719 124.144531 550.300781 125.832031 C 547.449219 127.523438 543.898438 128.367188 539.671875 128.367188 C 535.5625 128.367188 531.960938 127.664062 528.835938 126.25 C 525.730469 124.832031 523.046875 122.394531 520.769531 118.933594 C 518.511719 115.46875 517.375 111.042969 517.375 105.640625 C 517.375 100.539062 518.324219 96.460938 520.226562 93.410156 C 522.128906 90.359375 524.558594 88.003906 527.511719 86.347656 C 530.464844 84.6875 533.914062 83.855469 537.855469 83.847656 C 540.230469 83.847656 542.304688 84.195312 544.050781 84.890625 C 544.714844 85.136719 545.207031 85.257812 545.546875 85.257812 C 545.9375 85.257812 546.496094 85.007812 547.226562 84.515625 C 547.855469 84.066406 548.433594 83.847656 548.960938 83.847656 Z M 581.105469 118.640625 L 568.675781 118.640625 L 568.097656 121.085938 C 568.097656 121.140625 568.0625 121.222656 567.996094 121.332031 C 567.726562 121.84375 567.589844 122.304688 567.589844 122.714844 C 567.589844 123.355469 568.351562 123.90625 569.898438 124.355469 C 570.714844 124.585938 571.222656 124.832031 571.425781 125.078125 C 571.613281 125.328125 571.714844 125.738281 571.714844 126.316406 C 571.714844 127.046875 571.648438 127.488281 571.496094 127.644531 C 571.339844 127.800781 570.984375 127.875 570.425781 127.875 L 557.316406 127.875 C 556.585938 127.875 556.226562 127.460938 556.226562 126.636719 C 556.226562 125.65625 556.824219 124.851562 557.996094 124.246094 C 559.097656 123.6875 559.726562 123.101562 559.894531 122.476562 L 569.117188 90.890625 C 569.285156 90.40625 569.371094 89.984375 569.371094 89.625 C 569.371094 89.078125 568.640625 88.582031 567.214844 88.152344 C 566.554688 87.941406 566.210938 87.464844 566.210938 86.730469 C 566.210938 85.75 566.316406 85.136719 566.519531 84.910156 C 566.707031 84.679688 567.25 84.5625 568.097656 84.5625 L 587.132812 84.5625 C 588.289062 84.5625 589.105469 84.855469 589.578125 85.449219 C 590.039062 86.035156 590.496094 87.316406 590.972656 89.304688 C 591.160156 90.074219 591.363281 90.835938 591.566406 91.585938 L 599.734375 121.074219 C 600.125 122.515625 601.078125 123.605469 602.585938 124.355469 C 603.011719 124.546875 603.285156 124.703125 603.417969 124.824219 C 603.539062 124.941406 603.605469 125.289062 603.605469 125.886719 C 603.605469 126.800781 603.488281 127.359375 603.265625 127.5625 C 603.03125 127.773438 602.535156 127.875 601.773438 127.875 L 579.730469 127.875 C 579.066406 127.875 578.746094 127.535156 578.746094 126.855469 C 578.746094 125.996094 578.832031 125.453125 579 125.246094 C 579.171875 125.023438 579.644531 124.777344 580.445312 124.484375 C 581.613281 124.089844 582.210938 123.585938 582.210938 122.980469 C 582.210938 122.359375 581.835938 120.910156 581.105469 118.640625 Z M 575.128906 94.703125 L 569.507812 115.5625 L 580.546875 115.5625 Z M 628.671875 124.851562 L 631.558594 124.851562 C 633.050781 124.851562 634.140625 124.539062 634.851562 123.90625 C 635.566406 123.273438 636.484375 121.816406 637.636719 119.535156 C 638.027344 118.65625 638.503906 118.117188 639.0625 117.933594 C 639.605469 117.742188 640.558594 117.648438 641.898438 117.648438 C 643.378906 117.648438 644.328125 117.714844 644.753906 117.851562 C 645.175781 117.988281 645.382812 118.234375 645.382812 118.59375 C 645.382812 118.839844 645.296875 119.242188 645.125 119.800781 L 643.394531 126.234375 C 643.191406 126.894531 642.933594 127.332031 642.613281 127.550781 C 642.308594 127.761719 641.660156 127.875 640.695312 127.875 L 607.9375 127.875 C 606.542969 127.875 605.847656 127.40625 605.847656 126.480469 C 605.847656 125.765625 605.933594 125.308594 606.121094 125.097656 C 606.304688 124.894531 606.695312 124.738281 607.292969 124.628906 C 609.175781 124.308594 610.128906 123.367188 610.128906 121.808594 L 610.128906 89.9375 C 610.128906 89.277344 609.515625 88.800781 608.308594 88.519531 C 607.273438 88.28125 606.644531 88.023438 606.40625 87.738281 C 606.171875 87.445312 606.050781 86.96875 606.050781 86.3125 C 606.050781 85.523438 606.152344 85.027344 606.355469 84.84375 C 606.542969 84.652344 607.085938 84.5625 607.9375 84.5625 L 630.914062 84.5625 C 631.777344 84.5625 632.375 84.671875 632.679688 84.898438 C 633 85.121094 633.152344 85.722656 633.152344 86.714844 C 633.152344 87.308594 633.050781 87.703125 632.832031 87.914062 C 632.609375 88.113281 632.050781 88.296875 631.167969 88.464844 C 629.503906 88.765625 628.671875 89.359375 628.671875 90.230469 Z M 705.496094 83.847656 L 708.078125 83.847656 C 708.671875 83.847656 709.113281 83.964844 709.417969 84.210938 C 709.707031 84.449219 709.929688 85.101562 710.0625 86.15625 L 711.203125 94.785156 C 711.234375 94.957031 711.253906 95.132812 711.253906 95.296875 C 711.253906 95.921875 711.050781 96.359375 710.65625 96.605469 C 710.25 96.855469 709.453125 96.984375 708.246094 96.984375 C 706.785156 96.984375 705.769531 96.78125 705.207031 96.367188 C 704.648438 95.957031 704.085938 94.976562 703.558594 93.4375 C 702.234375 89.535156 700.332031 87.582031 697.871094 87.582031 C 695.816406 87.582031 694.796875 88.984375 694.796875 91.796875 L 694.796875 122.011719 C 694.796875 124.015625 695.882812 125.015625 698.039062 125.015625 C 700.773438 125.015625 702.320312 123.347656 702.644531 120.003906 C 702.746094 119.042969 703.085938 118.363281 703.695312 117.988281 C 704.289062 117.613281 705.511719 117.429688 707.363281 117.429688 C 708.757812 117.429688 709.722656 117.566406 710.285156 117.84375 C 710.828125 118.125 711.101562 118.667969 711.101562 119.464844 C 711.101562 122.019531 709.671875 124.144531 706.835938 125.832031 C 703.984375 127.523438 700.433594 128.367188 696.207031 128.367188 C 692.097656 128.367188 688.496094 127.664062 685.371094 126.25 C 682.265625 124.832031 679.582031 122.394531 677.304688 118.933594 C 675.046875 115.46875 673.910156 111.042969 673.910156 105.640625 C 673.910156 100.539062 674.859375 96.460938 676.761719 93.410156 C 678.664062 90.359375 681.09375 88.003906 684.046875 86.347656 C 687.003906 84.6875 690.449219 83.855469 694.390625 83.847656 C 696.765625 83.847656 698.839844 84.195312 700.589844 84.890625 C 701.25 85.136719 701.742188 85.257812 702.082031 85.257812 C 702.472656 85.257812 703.035156 85.007812 703.761719 84.515625 C 704.390625 84.066406 704.96875 83.847656 705.496094 83.847656 Z M 705.496094 83.847656 "/>
<path fill-rule="evenodd" fill="rgb(6.27451%, 16.470589%, 51.372552%)" fill-opacity="1" d="M 740.035156 83.847656 C 744.925781 83.847656 749.136719 84.726562 752.703125 86.492188 C 756.269531 88.253906 759.191406 90.761719 761.449219 94.015625 C 763.707031 97.277344 764.828125 101.453125 764.828125 106.546875 C 764.828125 112.667969 762.640625 117.832031 758.242188 122.046875 C 753.84375 126.261719 747.644531 128.367188 739.644531 128.367188 C 732.054688 128.367188 726.058594 126.308594 721.679688 122.195312 C 717.296875 118.082031 715.105469 112.765625 715.105469 106.253906 C 715.105469 99.585938 717.347656 94.179688 721.847656 90.046875 C 726.347656 85.917969 732.410156 83.847656 740.035156 83.847656 Z M 743.941406 90.222656 C 743.941406 87.988281 742.617188 86.871094 739.953125 86.871094 C 738.832031 86.871094 737.863281 87.144531 737.082031 87.703125 C 736.285156 88.253906 735.894531 88.941406 735.894531 89.738281 L 735.894531 122.128906 C 735.894531 123.21875 736.285156 124.042969 737.082031 124.613281 C 737.863281 125.171875 738.8125 125.453125 739.902344 125.453125 C 741.105469 125.453125 742.089844 125.144531 742.839844 124.511719 C 743.570312 123.886719 743.941406 123.191406 743.941406 122.421875 Z M 780.503906 117.265625 C 782.964844 117.265625 785.003906 117.785156 786.617188 118.824219 C 788.230469 119.867188 789.027344 121.140625 789.027344 122.671875 C 789.027344 124.117188 788.195312 125.410156 786.53125 126.554688 C 784.867188 127.691406 782.863281 128.257812 780.503906 128.257812 C 778.210938 128.257812 776.308594 127.753906 774.796875 126.738281 C 773.285156 125.730469 772.523438 124.457031 772.523438 122.9375 C 772.523438 121.433594 773.234375 120.113281 774.660156 118.96875 C 776.089844 117.832031 778.042969 117.265625 780.503906 117.265625 Z M 780.503906 117.265625 "/>
<path fill="none" stroke-width="2.20275" stroke-linecap="butt" stroke-linejoin="miter" stroke="rgb(70.980394%, 58.039218%, 6.27451%)" stroke-opacity="1" stroke-miterlimit="4" d="M 790.835953 133.453128 L 295.835943 133.453128 " transform="matrix(1, 0, 0, 1, 0, 0)"/>
<path fill="none" stroke-width="2.07914" stroke-linecap="butt" stroke-linejoin="miter" stroke="rgb(70.980394%, 58.039218%, 6.27451%)" stroke-opacity="1" stroke-miterlimit="4" d="M 674.984388 67.585939 L 233.984379 67.585939 " transform="matrix(1, 0, 0, 1, 0, 0)"/>
</svg>
