<?xml version="1.0" encoding="UTF-8"?>
<svg xmlns="http://www.w3.org/2000/svg" xmlns:xlink="http://www.w3.org/1999/xlink" width="800" height="300" viewBox="0 0 800 300">
<path fill-rule="evenodd" fill="rgb(94.117647%, 48.627451%, 0%)" fill-opacity="1" d="M 101.671875 205.082031 L 15.339844 98.785156 L 57.113281 98.515625 L 100.785156 150.582031 Z M 101.671875 205.082031 "/>
<path fill-rule="evenodd" fill="rgb(94.117647%, 48.627451%, 0%)" fill-opacity="1" d="M 104.621094 176.347656 C 104.523438 186.195312 104.425781 196.042969 104.328125 205.890625 C 116.132812 205.84375 127.933594 205.800781 139.738281 205.757812 C 124.285156 202.445312 110.902344 191.53125 104.621094 176.347656 Z M 104.621094 176.347656 "/>
<path fill-rule="evenodd" fill="rgb(94.117647%, 48.627451%, 0%)" fill-opacity="1" d="M 104.550781 124.214844 L 103.886719 99.324219 L 187.835938 98.648438 C 187.984375 106.113281 188.132812 113.578125 188.277344 121.042969 C 164.96875 97.875 131.527344 89.808594 104.550781 124.214844 Z M 104.550781 124.214844 "/>
<path fill-rule="evenodd" fill="rgb(94.117647%, 48.627451%, 0%)" fill-opacity="1" d="M 152.277344 205.484375 C 192.84375 194.125 193.414062 163.992188 171.140625 143.769531 C 157.9375 131.785156 140.273438 123.785156 147.648438 102.902344 C 109.507812 111.019531 105.199219 130.167969 122.75 157.394531 C 130.058594 168.730469 156.167969 178.761719 152.277344 205.484375 Z M 152.277344 205.484375 "/>
<path fill-rule="evenodd" fill="rgb(6.27451%, 16.470589%, 51.372552%)" fill-opacity="1" d="M 247.320312 124.984375 L 255.011719 104.246094 C 255.082031 104.070312 255.113281 103.878906 255.113281 103.675781 C 255.113281 102.960938 254.265625 102.386719 252.585938 101.953125 C 251.515625 101.671875 250.988281 101.394531 250.988281 101.128906 C 250.988281 101.011719 251.003906 100.882812 251.039062 100.765625 L 251.039062 100.332031 C 251.039062 99.546875 251.105469 99.042969 251.261719 98.839844 C 251.414062 98.640625 251.804688 98.539062 252.464844 98.539062 L 264.710938 98.539062 C 265.269531 98.539062 265.609375 98.621094 265.730469 98.785156 C 265.847656 98.960938 265.898438 99.390625 265.898438 100.105469 C 265.898438 100.929688 265.863281 101.441406 265.796875 101.632812 C 265.730469 101.835938 265.507812 101.992188 265.101562 102.109375 C 264.117188 102.46875 263.488281 102.78125 263.214844 103.046875 C 262.960938 103.300781 262.621094 103.960938 262.230469 105.015625 L 249.289062 139.925781 L 248.492188 142.050781 C 248.425781 142.246094 248.085938 142.34375 247.457031 142.34375 L 237.453125 142.34375 C 237.03125 142.34375 236.691406 142.234375 236.46875 142.023438 C 236.230469 141.804688 235.910156 141.109375 235.46875 139.925781 L 222.492188 104.234375 C 222.1875 103.339844 221.390625 102.6875 220.082031 102.277344 C 219.402344 102.066406 218.996094 101.898438 218.84375 101.78125 C 218.707031 101.671875 218.621094 101.425781 218.621094 101.058594 C 218.621094 100.929688 218.636719 100.808594 218.671875 100.683594 C 218.707031 100.488281 218.722656 100.304688 218.722656 100.132812 C 218.722656 100.003906 218.707031 99.894531 218.671875 99.785156 L 218.671875 99.417969 C 218.671875 98.832031 219.082031 98.539062 219.859375 98.539062 L 242.414062 98.539062 C 243.175781 98.539062 243.566406 98.90625 243.566406 99.648438 C 243.566406 99.664062 243.535156 100.179688 243.464844 101.1875 C 243.398438 101.414062 243.058594 101.605469 242.429688 101.761719 C 240.988281 102.136719 240.257812 102.742188 240.257812 103.566406 C 240.257812 103.769531 240.308594 103.988281 240.410156 104.246094 Z M 285.476562 132.617188 L 273.046875 132.617188 L 272.46875 135.0625 C 272.46875 135.117188 272.4375 135.199219 272.367188 135.308594 C 272.097656 135.824219 271.960938 136.28125 271.960938 136.691406 C 271.960938 137.335938 272.726562 137.882812 274.269531 138.332031 C 275.085938 138.5625 275.59375 138.808594 275.796875 139.058594 C 275.984375 139.304688 276.085938 139.714844 276.085938 140.292969 C 276.085938 141.027344 276.019531 141.464844 275.867188 141.621094 C 275.714844 141.777344 275.355469 141.851562 274.796875 141.851562 L 261.6875 141.851562 C 260.957031 141.851562 260.601562 141.4375 260.601562 140.613281 C 260.601562 139.632812 261.195312 138.828125 262.367188 138.222656 C 263.46875 137.664062 264.097656 137.078125 264.269531 136.453125 L 273.488281 104.867188 C 273.660156 104.382812 273.742188 103.960938 273.742188 103.605469 C 273.742188 103.054688 273.011719 102.558594 271.585938 102.128906 C 270.925781 101.917969 270.585938 101.441406 270.585938 100.710938 C 270.585938 99.730469 270.6875 99.117188 270.890625 98.886719 C 271.078125 98.65625 271.621094 98.539062 272.46875 98.539062 L 291.507812 98.539062 C 292.660156 98.539062 293.476562 98.832031 293.953125 99.425781 C 294.410156 100.011719 294.867188 101.296875 295.34375 103.285156 C 295.53125 104.054688 295.734375 104.8125 295.9375 105.5625 L 304.105469 135.054688 C 304.496094 136.492188 305.449219 137.582031 306.960938 138.332031 C 307.382812 138.523438 307.65625 138.679688 307.792969 138.800781 C 307.910156 138.917969 307.976562 139.265625 307.976562 139.863281 C 307.976562 140.777344 307.859375 141.335938 307.640625 141.539062 C 307.402344 141.75 306.910156 141.851562 306.144531 141.851562 L 284.101562 141.851562 C 283.441406 141.851562 283.117188 141.511719 283.117188 140.832031 C 283.117188 139.972656 283.203125 139.433594 283.371094 139.222656 C 283.542969 139 284.015625 138.753906 284.816406 138.460938 C 285.988281 138.066406 286.582031 137.5625 286.582031 136.957031 C 286.582031 136.335938 286.207031 134.886719 285.476562 132.617188 Z M 279.5 108.679688 L 273.878906 129.539062 L 284.917969 129.539062 Z M 333.449219 122.777344 L 333.449219 136.097656 C 333.449219 136.730469 333.519531 137.152344 333.671875 137.363281 C 333.808594 137.574219 334.214844 137.800781 334.894531 138.03125 C 335.761719 138.34375 336.203125 138.847656 336.203125 139.570312 C 336.203125 140.605469 336.03125 141.246094 335.675781 141.484375 C 335.335938 141.730469 334.707031 141.851562 333.773438 141.851562 L 312.816406 141.851562 C 311.628906 141.851562 311.035156 141.382812 311.035156 140.449219 C 311.035156 139.5625 311.085938 138.972656 311.1875 138.71875 C 311.289062 138.460938 311.613281 138.277344 312.171875 138.167969 C 313.988281 137.773438 314.90625 137.003906 314.90625 135.859375 L 314.90625 104.402344 C 314.90625 103.238281 314.109375 102.523438 312.511719 102.277344 C 311.730469 102.136719 311.222656 101.992188 311.035156 101.855469 C 310.832031 101.707031 310.730469 101.296875 310.730469 100.609375 C 310.730469 99.226562 311.425781 98.539062 312.816406 98.539062 L 340.363281 98.539062 C 345.832031 98.539062 350.722656 99.648438 355.015625 101.863281 C 359.3125 104.082031 361.46875 107.058594 361.46875 110.796875 C 361.46875 116.109375 356.445312 119.582031 346.375 121.210938 C 355.5625 122.300781 360.144531 125.445312 360.144531 130.628906 L 360.144531 137.011719 C 360.144531 137.554688 360.519531 137.949219 361.265625 138.222656 C 362.148438 138.542969 362.589844 139.039062 362.589844 139.699219 C 362.589844 140.742188 362.472656 141.355469 362.253906 141.558594 C 362.015625 141.75 361.402344 141.851562 360.417969 141.851562 L 347.15625 141.851562 C 345.558594 141.851562 344.269531 141.363281 343.230469 140.386719 C 342.214844 139.414062 341.703125 138.203125 341.703125 136.777344 L 341.703125 125.949219 C 341.703125 123.832031 339.699219 122.777344 335.710938 122.777344 Z M 333.449219 101.617188 L 333.449219 119.644531 L 336.726562 119.644531 C 340.039062 119.644531 341.703125 117.867188 341.703125 114.324219 L 341.703125 105.710938 C 341.703125 104.207031 341.179688 103.15625 340.125 102.542969 C 339.054688 101.925781 337.40625 101.617188 335.164062 101.617188 Z M 369.46875 135.914062 L 369.46875 103.410156 C 369.367188 103.054688 368.773438 102.789062 367.6875 102.605469 C 366.820312 102.460938 366.242188 102.25 365.9375 101.972656 C 365.648438 101.699219 365.496094 101.09375 365.496094 100.179688 C 365.496094 99.519531 365.714844 99.078125 366.140625 98.859375 C 366.582031 98.648438 367.6875 98.539062 369.484375 98.539062 L 393.34375 98.539062 C 400.15625 98.539062 405.792969 100.234375 410.257812 103.613281 C 414.726562 106.992188 416.949219 112.609375 416.949219 120.460938 C 416.949219 127.613281 414.792969 132.972656 410.480469 136.527344 C 406.148438 140.074219 400.445312 141.851562 393.328125 141.851562 L 367.023438 141.851562 C 366.292969 141.851562 365.800781 141.757812 365.511719 141.566406 C 365.222656 141.382812 365.085938 140.972656 365.085938 140.328125 C 365.085938 139.570312 365.140625 139.085938 365.242188 138.890625 C 365.34375 138.691406 365.816406 138.46875 366.683594 138.222656 C 368.535156 137.699219 369.46875 136.929688 369.46875 135.914062 Z M 388.011719 101.726562 L 388.011719 138.882812 L 390.660156 138.882812 C 392.53125 138.882812 393.890625 138.46875 394.753906 137.636719 C 395.621094 136.804688 396.0625 135.320312 396.0625 133.195312 L 396.0625 105.773438 C 396.0625 104.574219 395.535156 103.605469 394.464844 102.851562 C 393.394531 102.101562 391.886719 101.726562 389.914062 101.726562 Z M 443.492188 117.117188 L 451.441406 117.117188 L 451.441406 103.613281 C 451.441406 103.183594 451.371094 102.898438 451.21875 102.761719 C 451.082031 102.613281 450.691406 102.429688 450.046875 102.21875 C 449.351562 102 448.992188 101.507812 448.992188 100.71875 C 448.992188 99.710938 449.078125 99.097656 449.25 98.878906 C 449.402344 98.648438 449.878906 98.539062 450.625 98.539062 L 472.125 98.539062 C 473.089844 98.539062 473.667969 98.628906 473.871094 98.820312 C 474.058594 99.003906 474.160156 99.617188 474.160156 100.644531 C 474.160156 101.269531 474.058594 101.644531 473.839844 101.753906 C 473.617188 101.871094 472.957031 102.082031 471.816406 102.386719 C 470.59375 102.742188 469.984375 103.300781 469.984375 104.054688 L 469.984375 136.207031 C 469.984375 137.050781 470.695312 137.71875 472.125 138.222656 C 473.277344 138.617188 473.855469 138.964844 473.855469 139.285156 L 473.855469 140.972656 C 473.855469 141.328125 473.753906 141.558594 473.566406 141.675781 C 473.363281 141.796875 472.785156 141.851562 471.835938 141.851562 L 450.269531 141.851562 C 449.554688 141.851562 449.097656 141.777344 448.941406 141.640625 C 448.773438 141.492188 448.6875 140.832031 448.6875 139.660156 C 448.6875 139.074219 449.113281 138.617188 449.960938 138.277344 C 450.945312 137.882812 451.441406 137.425781 451.441406 136.902344 L 451.441406 120.140625 L 443.492188 120.140625 L 443.492188 137.023438 C 443.492188 137.589844 443.917969 138.050781 444.765625 138.386719 C 445.613281 138.761719 446.039062 139.292969 446.039062 139.980469 C 446.039062 140.945312 445.9375 141.492188 445.734375 141.628906 C 445.546875 141.777344 445.140625 141.851562 444.542969 141.851562 L 422.722656 141.851562 C 422.027344 141.851562 421.585938 141.769531 421.433594 141.613281 C 421.261719 141.449219 421.179688 140.816406 421.179688 139.714844 C 421.179688 139.203125 421.261719 138.863281 421.433594 138.699219 C 421.601562 138.542969 422.0625 138.34375 422.84375 138.113281 C 424.253906 137.71875 424.949219 137.1875 424.949219 136.527344 L 424.949219 104.082031 C 424.949219 103.566406 424.320312 103.074219 423.0625 102.605469 C 421.808594 102.121094 421.179688 101.433594 421.179688 100.535156 C 421.179688 99.582031 421.3125 99.003906 421.601562 98.820312 C 421.890625 98.628906 422.503906 98.539062 423.46875 98.539062 L 443.898438 98.539062 C 444.800781 98.539062 445.410156 98.621094 445.75 98.792969 C 446.074219 98.960938 446.242188 99.363281 446.242188 99.984375 L 446.242188 101.25 C 446.175781 101.570312 445.769531 101.863281 445.019531 102.109375 C 444 102.414062 443.492188 102.917969 443.492188 103.613281 Z M 500.890625 132.617188 L 488.460938 132.617188 L 487.882812 135.0625 C 487.882812 135.117188 487.847656 135.199219 487.78125 135.308594 C 487.507812 135.824219 487.371094 136.28125 487.371094 136.691406 C 487.371094 137.335938 488.136719 137.882812 489.683594 138.332031 C 490.496094 138.5625 491.007812 138.808594 491.210938 139.058594 C 491.398438 139.304688 491.5 139.714844 491.5 140.292969 C 491.5 141.027344 491.429688 141.464844 491.277344 141.621094 C 491.125 141.777344 490.769531 141.851562 490.207031 141.851562 L 477.097656 141.851562 C 476.367188 141.851562 476.011719 141.4375 476.011719 140.613281 C 476.011719 139.632812 476.605469 138.828125 477.777344 138.222656 C 478.882812 137.664062 479.511719 137.078125 479.679688 136.453125 L 488.902344 104.867188 C 489.070312 104.382812 489.15625 103.960938 489.15625 103.605469 C 489.15625 103.054688 488.425781 102.558594 487 102.128906 C 486.335938 101.917969 485.996094 101.441406 485.996094 100.710938 C 485.996094 99.730469 486.097656 99.117188 486.304688 98.886719 C 486.488281 98.65625 487.035156 98.539062 487.882812 98.539062 L 506.917969 98.539062 C 508.074219 98.539062 508.886719 98.832031 509.363281 99.425781 C 509.824219 100.011719 510.28125 101.296875 510.757812 103.285156 C 510.941406 104.054688 511.148438 104.8125 511.351562 105.5625 L 519.519531 135.054688 C 519.910156 136.492188 520.859375 137.582031 522.371094 138.332031 C 522.796875 138.523438 523.066406 138.679688 523.203125 138.800781 C 523.324219 138.917969 523.390625 139.265625 523.390625 139.863281 C 523.390625 140.777344 523.273438 141.335938 523.050781 141.539062 C 522.8125 141.75 522.320312 141.851562 521.554688 141.851562 L 499.515625 141.851562 C 498.851562 141.851562 498.53125 141.511719 498.53125 140.832031 C 498.53125 139.972656 498.613281 139.433594 498.785156 139.222656 C 498.953125 139 499.429688 138.753906 500.226562 138.460938 C 501.398438 138.066406 501.992188 137.5625 501.992188 136.957031 C 501.992188 136.335938 501.621094 134.886719 500.890625 132.617188 Z M 494.914062 108.679688 L 489.292969 129.539062 L 500.328125 129.539062 Z M 562.636719 98.539062 L 580.3125 98.539062 C 581.5 98.539062 582.28125 98.628906 582.65625 98.820312 C 583.011719 99.003906 583.199219 99.480469 583.199219 100.25 C 583.199219 100.949219 583.082031 101.433594 582.824219 101.707031 C 582.570312 101.984375 581.941406 102.25 580.957031 102.496094 C 580.074219 102.707031 579.515625 102.945312 579.277344 103.191406 C 579.039062 103.449219 578.921875 103.851562 578.921875 104.429688 L 578.921875 136.300781 C 578.921875 136.757812 579.023438 137.097656 579.226562 137.316406 C 579.429688 137.527344 579.988281 137.753906 580.90625 137.984375 C 582.164062 138.304688 582.792969 138.746094 582.792969 139.304688 C 582.792969 140.695312 582.707031 141.476562 582.539062 141.621094 C 582.382812 141.777344 581.789062 141.851562 580.804688 141.851562 L 558.558594 141.851562 C 557.589844 141.851562 557.117188 141.410156 557.117188 140.53125 C 557.117188 139.78125 557.167969 139.222656 557.269531 138.855469 C 557.371094 138.488281 557.980469 138.195312 559.101562 137.957031 C 560.359375 137.691406 560.988281 137.214844 560.988281 136.539062 L 560.988281 113.929688 L 551.988281 132.175781 L 546.503906 132.175781 L 537.65625 114.496094 L 537.65625 136.453125 C 537.65625 137.167969 538.25 137.699219 539.4375 138.039062 C 540.898438 138.433594 541.628906 139.128906 541.628906 140.128906 C 541.628906 141.273438 540.898438 141.851562 539.453125 141.851562 L 528.6875 141.851562 C 527.464844 141.851562 526.855469 141.300781 526.855469 140.210938 C 526.855469 139.441406 527.363281 138.855469 528.382812 138.441406 C 529.148438 138.105469 529.621094 137.828125 529.828125 137.628906 C 530.011719 137.417969 530.117188 137.058594 530.117188 136.539062 L 530.117188 105.527344 C 530.117188 104.667969 529.980469 104.007812 529.691406 103.558594 C 529.417969 103.101562 528.808594 102.726562 527.890625 102.441406 C 526.886719 102.15625 526.394531 101.863281 526.394531 101.5625 L 526.445312 100.40625 C 526.480469 99.574219 526.582031 99.050781 526.769531 98.851562 C 526.957031 98.640625 527.398438 98.539062 528.09375 98.539062 L 546.503906 98.539062 L 554.5 115.109375 Z M 609.148438 132.617188 L 596.71875 132.617188 L 596.140625 135.0625 C 596.140625 135.117188 596.105469 135.199219 596.039062 135.308594 C 595.765625 135.824219 595.628906 136.28125 595.628906 136.691406 C 595.628906 137.335938 596.394531 137.882812 597.941406 138.332031 C 598.753906 138.5625 599.265625 138.808594 599.46875 139.058594 C 599.65625 139.304688 599.757812 139.714844 599.757812 140.292969 C 599.757812 141.027344 599.6875 141.464844 599.535156 141.621094 C 599.382812 141.777344 599.027344 141.851562 598.464844 141.851562 L 585.355469 141.851562 C 584.625 141.851562 584.269531 141.4375 584.269531 140.613281 C 584.269531 139.632812 584.863281 138.828125 586.035156 138.222656 C 587.140625 137.664062 587.769531 137.078125 587.9375 136.453125 L 597.160156 104.867188 C 597.328125 104.382812 597.414062 103.960938 597.414062 103.605469 C 597.414062 103.054688 596.683594 102.558594 595.257812 102.128906 C 594.59375 101.917969 594.253906 101.441406 594.253906 100.710938 C 594.253906 99.730469 594.355469 99.117188 594.558594 98.886719 C 594.746094 98.65625 595.289062 98.539062 596.140625 98.539062 L 615.175781 98.539062 C 616.332031 98.539062 617.144531 98.832031 617.621094 99.425781 C 618.082031 100.011719 618.539062 101.296875 619.015625 103.285156 C 619.199219 104.054688 619.40625 104.8125 619.609375 105.5625 L 627.777344 135.054688 C 628.167969 136.492188 629.117188 137.582031 630.628906 138.332031 C 631.054688 138.523438 631.324219 138.679688 631.460938 138.800781 C 631.582031 138.917969 631.648438 139.265625 631.648438 139.863281 C 631.648438 140.777344 631.53125 141.335938 631.308594 141.539062 C 631.070312 141.75 630.578125 141.851562 629.816406 141.851562 L 607.773438 141.851562 C 607.109375 141.851562 606.789062 141.511719 606.789062 140.832031 C 606.789062 139.972656 606.871094 139.433594 607.042969 139.222656 C 607.210938 139 607.6875 138.753906 608.484375 138.460938 C 609.65625 138.066406 610.25 137.5625 610.25 136.957031 C 610.25 136.335938 609.878906 134.886719 609.148438 132.617188 Z M 603.171875 108.679688 L 597.550781 129.539062 L 608.585938 129.539062 Z M 646.523438 117.289062 L 646.523438 136.234375 C 646.523438 137.023438 647.355469 137.609375 649.019531 138.003906 C 650.414062 138.34375 651.109375 138.828125 651.109375 139.460938 C 651.109375 140.769531 651.058594 141.492188 650.9375 141.640625 C 650.820312 141.777344 650.328125 141.851562 649.480469 141.851562 L 636.300781 141.851562 C 635.640625 141.851562 635.214844 141.714844 635.0625 141.4375 C 634.890625 141.15625 634.808594 140.476562 634.808594 139.378906 C 634.808594 138.882812 635.25 138.523438 636.132812 138.332031 C 637.828125 137.921875 638.679688 137.453125 638.679688 136.941406 L 638.679688 105.234375 C 638.679688 104.464844 638.542969 103.886719 638.289062 103.503906 C 638.03125 103.117188 637.457031 102.796875 636.539062 102.550781 C 635.722656 102.332031 635.195312 102.101562 634.910156 101.855469 C 634.636719 101.597656 634.5 101.121094 634.5 100.425781 C 634.5 99.171875 635.113281 98.539062 636.316406 98.539062 L 650.023438 98.539062 L 666.800781 119.644531 L 666.800781 104.0625 C 666.800781 103.199219 666 102.578125 664.386719 102.21875 C 663.4375 101.992188 662.808594 101.726562 662.539062 101.425781 C 662.25 101.128906 662.113281 100.554688 662.113281 99.691406 C 662.113281 99.152344 662.214844 98.832031 662.417969 98.710938 C 662.605469 98.59375 662.996094 98.539062 663.558594 98.539062 L 677.277344 98.539062 C 678.042969 98.59375 678.414062 99.179688 678.414062 100.296875 C 678.414062 100.957031 678.347656 101.367188 678.195312 101.550781 C 678.042969 101.726562 677.703125 101.871094 677.175781 102 C 676.019531 102.25 675.289062 102.496094 674.984375 102.726562 C 674.695312 102.960938 674.542969 103.285156 674.542969 103.695312 L 674.542969 141.851562 L 666.054688 141.851562 Z M 317.164062 164.992188 C 317.371094 164.898438 317.929688 164.496094 318.863281 163.773438 C 319.457031 163.304688 320.238281 163.066406 321.242188 163.066406 C 321.460938 163.066406 322.394531 163.132812 324.027344 163.257812 C 324.347656 163.433594 324.605469 163.808594 324.757812 164.386719 L 327.4375 173.492188 C 327.574219 173.976562 327.644531 174.261719 327.644531 174.351562 C 327.644531 174.691406 327.472656 174.921875 327.117188 175.023438 C 326.777344 175.132812 325.859375 175.1875 324.367188 175.1875 C 322.683594 175.1875 321.582031 175.066406 321.089844 174.839844 C 320.597656 174.609375 319.644531 173.640625 318.253906 171.945312 C 315.316406 168.351562 312.683594 166.558594 310.355469 166.558594 C 308.707031 166.558594 307.878906 167.179688 307.878906 168.433594 C 307.878906 169.992188 310.375 173.042969 315.367188 177.605469 C 321.105469 182.863281 324.824219 186.664062 326.574219 189.019531 C 328.304688 191.363281 329.171875 194.003906 329.171875 196.917969 C 329.171875 200.371094 327.660156 203.007812 324.65625 204.851562 C 321.648438 206.691406 318.253906 207.617188 314.5 207.617188 C 312.105469 207.617188 309.8125 207.25 307.605469 206.507812 C 306.738281 206.214844 306.058594 206.078125 305.566406 206.078125 C 305.125 206.078125 304.785156 206.242188 304.515625 206.589844 C 303.988281 207.277344 302.699219 207.617188 300.660156 207.617188 C 299.863281 207.617188 299.316406 207.550781 299.046875 207.414062 C 298.757812 207.277344 298.554688 206.929688 298.417969 206.351562 L 295.9375 197.410156 C 295.617188 196.265625 295.445312 195.660156 295.445312 195.589844 C 295.445312 195.066406 296.328125 194.808594 298.078125 194.808594 C 300.4375 194.808594 301.847656 194.984375 302.273438 195.324219 C 302.714844 195.660156 303.324219 196.429688 304.105469 197.648438 C 307.011719 201.984375 309.929688 204.152344 312.871094 204.152344 C 313.957031 204.152344 314.839844 203.941406 315.519531 203.511719 C 316.199219 203.082031 316.535156 202.542969 316.535156 201.898438 C 316.535156 200.773438 315.789062 199.4375 314.277344 197.886719 C 312.785156 196.347656 310.933594 194.625 308.761719 192.730469 C 303.53125 188.1875 299.84375 184.558594 297.671875 181.855469 C 295.515625 179.144531 294.425781 176.378906 294.425781 173.554688 C 294.425781 170.367188 295.71875 167.832031 298.300781 165.933594 C 300.878906 164.039062 304.039062 163.09375 307.773438 163.09375 C 310.375 163.09375 313.5 163.726562 317.164062 164.992188 Z M 334.0625 163.808594 L 355.59375 163.808594 C 356.324219 163.808594 356.800781 163.890625 356.988281 164.066406 C 357.191406 164.230469 357.292969 164.761719 357.292969 165.632812 C 357.292969 166.511719 356.816406 167.097656 355.867188 167.382812 C 355.136719 167.59375 354.644531 167.820312 354.40625 168.050781 C 354.152344 168.289062 354.03125 168.738281 354.03125 169.398438 L 354.03125 199.464844 C 354.03125 200.289062 354.472656 200.957031 355.355469 201.460938 C 356.222656 201.972656 357.34375 202.230469 358.703125 202.230469 C 359.941406 202.230469 361.011719 201.945312 361.878906 201.367188 C 362.761719 200.800781 363.203125 200.160156 363.203125 199.464844 L 363.203125 169.398438 C 363.203125 168.882812 363.117188 168.519531 362.929688 168.308594 C 362.746094 168.105469 362.285156 167.847656 361.554688 167.546875 C 360.417969 167.078125 359.839844 166.363281 359.839844 165.394531 C 359.839844 164.644531 359.992188 164.195312 360.316406 164.039062 C 360.621094 163.882812 361.082031 163.808594 361.675781 163.808594 L 372.421875 163.808594 C 373.613281 163.808594 374.207031 164.128906 374.207031 164.769531 L 374.207031 166.054688 C 374.207031 166.621094 374.140625 166.980469 374.003906 167.132812 C 373.882812 167.28125 373.492188 167.417969 372.863281 167.546875 C 371.320312 167.832031 370.539062 168.417969 370.539062 169.296875 L 370.539062 198.59375 C 370.539062 201.367188 369.0625 203.566406 366.089844 205.1875 C 363.132812 206.808594 359.007812 207.617188 353.710938 207.617188 C 347.785156 207.617188 343.265625 206.753906 340.160156 205.042969 C 337.050781 203.320312 335.488281 200.847656 335.488281 197.605469 L 335.488281 169.324219 C 335.488281 168.574219 334.757812 168.015625 333.28125 167.65625 C 332.535156 167.472656 332.09375 167.308594 331.9375 167.164062 C 331.785156 167.007812 331.71875 166.675781 331.71875 166.171875 C 331.71875 165.136719 331.835938 164.476562 332.074219 164.210938 C 332.296875 163.945312 332.957031 163.808594 334.0625 163.808594 Z M 399.628906 188.050781 L 399.628906 201.367188 C 399.628906 202 399.695312 202.421875 399.847656 202.632812 C 399.984375 202.84375 400.390625 203.074219 401.070312 203.300781 C 401.9375 203.613281 402.378906 204.117188 402.378906 204.839844 C 402.378906 205.875 402.210938 206.515625 401.851562 206.753906 C 401.511719 207.003906 400.886719 207.121094 399.949219 207.121094 L 378.996094 207.121094 C 377.804688 207.121094 377.210938 206.65625 377.210938 205.71875 C 377.210938 204.832031 377.261719 204.246094 377.363281 203.988281 C 377.46875 203.734375 377.789062 203.550781 378.351562 203.4375 C 380.167969 203.046875 381.082031 202.277344 381.082031 201.128906 L 381.082031 169.671875 C 381.082031 168.507812 380.285156 167.792969 378.691406 167.546875 C 377.910156 167.410156 377.398438 167.261719 377.210938 167.125 C 377.007812 166.980469 376.90625 166.566406 376.90625 165.878906 C 376.90625 164.496094 377.601562 163.808594 378.996094 163.808594 L 406.539062 163.808594 C 412.007812 163.808594 416.898438 164.917969 421.195312 167.132812 C 425.492188 169.351562 427.648438 172.328125 427.648438 176.066406 C 427.648438 181.378906 422.621094 184.851562 412.550781 186.484375 C 421.738281 187.574219 426.324219 190.714844 426.324219 195.898438 L 426.324219 202.285156 C 426.324219 202.824219 426.695312 203.21875 427.445312 203.492188 C 428.328125 203.816406 428.769531 204.308594 428.769531 204.96875 C 428.769531 206.011719 428.648438 206.628906 428.429688 206.828125 C 428.191406 207.019531 427.578125 207.121094 426.59375 207.121094 L 413.332031 207.121094 C 411.734375 207.121094 410.445312 206.636719 409.410156 205.65625 C 408.390625 204.683594 407.882812 203.476562 407.882812 202.046875 L 407.882812 191.21875 C 407.882812 189.101562 405.878906 188.050781 401.886719 188.050781 Z M 399.628906 166.886719 L 399.628906 184.914062 L 402.90625 184.914062 C 406.214844 184.914062 407.882812 183.140625 407.882812 179.59375 L 407.882812 170.980469 C 407.882812 169.480469 407.355469 168.425781 406.300781 167.8125 C 405.230469 167.199219 403.585938 166.886719 401.34375 166.886719 Z M 467.453125 204.5 C 464.464844 206.582031 460.777344 207.617188 456.398438 207.617188 C 449.554688 207.617188 443.96875 205.453125 439.621094 201.121094 C 435.273438 196.789062 433.097656 191.660156 433.097656 185.722656 C 433.097656 178.988281 435.5625 173.539062 440.46875 169.359375 C 445.375 165.183594 451.183594 163.09375 457.890625 163.09375 C 461.101562 163.09375 463.953125 163.542969 466.449219 164.433594 C 467.25 164.707031 467.859375 164.835938 468.285156 164.835938 C 468.894531 164.835938 469.40625 164.53125 469.832031 163.929688 C 470.238281 163.371094 470.933594 163.09375 471.917969 163.09375 L 472.53125 163.09375 L 474.109375 163.148438 C 475.179688 163.242188 475.84375 163.644531 476.113281 164.359375 L 479.289062 172.90625 C 479.628906 173.785156 479.78125 174.378906 479.78125 174.683594 C 479.78125 175.316406 478.914062 175.625 477.148438 175.625 C 475.417969 175.625 474.3125 175.488281 473.804688 175.222656 C 473.3125 174.957031 472.308594 174.015625 470.816406 172.394531 C 468.828125 170.210938 467.078125 168.691406 465.566406 167.839844 C 464.054688 166.988281 462.441406 166.558594 460.710938 166.558594 C 456.160156 166.558594 453.882812 168.507812 453.882812 172.402344 L 453.882812 201.214844 C 453.882812 203.320312 455.140625 204.375 457.636719 204.375 C 460.371094 204.375 461.730469 203.320312 461.730469 201.214844 L 461.730469 187.179688 C 461.730469 186.273438 461.136719 185.675781 459.964844 185.410156 C 458.691406 185.125 458.0625 184.539062 458.0625 183.660156 C 458.0625 182.707031 458.230469 182.140625 458.554688 181.957031 C 458.894531 181.765625 459.605469 181.671875 460.695312 181.671875 L 481.769531 181.671875 C 482.785156 181.671875 483.484375 181.773438 483.824219 181.964844 C 484.179688 182.167969 484.351562 182.617188 484.351562 183.3125 C 484.351562 184.046875 484.246094 184.539062 484.027344 184.789062 C 483.804688 185.042969 483.296875 185.246094 482.464844 185.410156 C 481.277344 185.640625 480.679688 186.132812 480.679688 186.886719 L 480.679688 205.144531 C 480.679688 206.242188 480.546875 206.921875 480.292969 207.203125 C 480.019531 207.480469 479.324219 207.617188 478.203125 207.617188 C 477.167969 207.617188 476.4375 207.578125 475.976562 207.496094 C 475.535156 207.414062 474.90625 207.167969 474.109375 206.753906 C 471.902344 205.59375 469.675781 204.839844 467.453125 204.5 Z M 487.050781 166.054688 L 487.050781 164.632812 C 487.050781 164.082031 487.59375 163.808594 488.695312 163.808594 L 512.523438 163.808594 C 513.421875 163.808594 514 163.875 514.273438 164 C 514.527344 164.121094 514.660156 164.496094 514.660156 165.128906 C 514.660156 166.070312 514.578125 166.667969 514.390625 166.898438 C 514.203125 167.125 513.796875 167.273438 513.167969 167.328125 C 511.113281 167.519531 510.078125 168.234375 510.078125 169.453125 L 510.078125 201.773438 C 510.078125 202.449219 510.824219 202.992188 512.320312 203.382812 C 513.285156 203.632812 513.863281 203.851562 514.050781 204.042969 C 514.253906 204.234375 514.355469 204.566406 514.355469 205.042969 L 514.355469 206.066406 C 514.355469 206.628906 514.253906 206.949219 514.050781 207.019531 C 513.863281 207.085938 513.335938 207.121094 512.523438 207.121094 L 488.238281 207.121094 C 487.304688 207.121094 486.847656 206.921875 486.847656 206.527344 C 486.847656 205.242188 486.929688 204.457031 487.101562 204.164062 C 487.253906 203.878906 487.847656 203.660156 488.832031 203.492188 C 490.632812 203.226562 491.53125 202.714844 491.53125 201.964844 L 491.53125 170.09375 C 491.53125 169.34375 491.363281 168.773438 491.039062 168.390625 C 490.699219 168.003906 489.96875 167.683594 488.851562 167.4375 C 488.019531 167.246094 487.507812 167.070312 487.320312 166.914062 C 487.132812 166.769531 487.050781 166.476562 487.050781 166.054688 Z M 549.8125 163.09375 L 552.394531 163.09375 C 552.988281 163.09375 553.429688 163.214844 553.738281 163.460938 C 554.023438 163.699219 554.246094 164.351562 554.382812 165.402344 L 555.519531 174.03125 C 555.554688 174.207031 555.570312 174.378906 555.570312 174.546875 C 555.570312 175.167969 555.367188 175.609375 554.976562 175.855469 C 554.570312 176.101562 553.769531 176.230469 552.566406 176.230469 C 551.105469 176.230469 550.085938 176.03125 549.523438 175.617188 C 548.964844 175.207031 548.402344 174.226562 547.878906 172.6875 C 546.554688 168.785156 544.652344 166.832031 542.1875 166.832031 C 540.132812 166.832031 539.117188 168.234375 539.117188 171.046875 L 539.117188 201.257812 C 539.117188 203.265625 540.203125 204.261719 542.359375 204.261719 C 545.09375 204.261719 546.636719 202.597656 546.960938 199.253906 C 547.0625 198.289062 547.402344 197.613281 548.015625 197.238281 C 548.609375 196.863281 549.832031 196.679688 551.683594 196.679688 C 553.074219 196.679688 554.042969 196.816406 554.601562 197.089844 C 555.144531 197.375 555.417969 197.914062 555.417969 198.710938 C 555.417969 201.269531 553.992188 203.394531 551.15625 205.078125 C 548.300781 206.773438 544.753906 207.617188 540.523438 207.617188 C 536.414062 207.617188 532.816406 206.910156 529.691406 205.5 C 526.582031 204.082031 523.898438 201.644531 521.625 198.179688 C 519.367188 194.71875 518.226562 190.292969 518.226562 184.886719 C 518.226562 179.785156 519.179688 175.710938 521.082031 172.660156 C 522.984375 169.609375 525.410156 167.253906 528.367188 165.59375 C 531.320312 163.9375 534.769531 163.105469 538.707031 163.09375 C 541.085938 163.09375 543.15625 163.441406 544.90625 164.140625 C 545.566406 164.386719 546.0625 164.503906 546.402344 164.503906 C 546.789062 164.503906 547.351562 164.257812 548.082031 163.761719 C 548.710938 163.316406 549.289062 163.09375 549.8125 163.09375 Z M 581.960938 197.886719 L 569.527344 197.886719 L 568.953125 200.332031 C 568.953125 200.390625 568.917969 200.472656 568.851562 200.582031 C 568.578125 201.09375 568.441406 201.550781 568.441406 201.964844 C 568.441406 202.605469 569.207031 203.15625 570.753906 203.605469 C 571.566406 203.832031 572.078125 204.082031 572.28125 204.328125 C 572.46875 204.574219 572.570312 204.988281 572.570312 205.5625 C 572.570312 206.296875 572.5 206.738281 572.347656 206.894531 C 572.195312 207.046875 571.839844 207.121094 571.277344 207.121094 L 558.167969 207.121094 C 557.4375 207.121094 557.082031 206.710938 557.082031 205.886719 C 557.082031 204.90625 557.675781 204.097656 558.847656 203.492188 C 559.953125 202.933594 560.578125 202.347656 560.75 201.726562 L 569.972656 170.140625 C 570.140625 169.652344 570.226562 169.234375 570.226562 168.875 C 570.226562 168.324219 569.496094 167.832031 568.070312 167.398438 C 567.40625 167.191406 567.066406 166.714844 567.066406 165.980469 C 567.066406 165 567.167969 164.386719 567.371094 164.15625 C 567.558594 163.929688 568.101562 163.808594 568.953125 163.808594 L 587.988281 163.808594 C 589.144531 163.808594 589.957031 164.101562 590.433594 164.699219 C 590.890625 165.285156 591.351562 166.566406 591.828125 168.554688 C 592.011719 169.324219 592.21875 170.085938 592.421875 170.835938 L 600.589844 200.324219 C 600.980469 201.761719 601.929688 202.851562 603.441406 203.605469 C 603.867188 203.796875 604.136719 203.953125 604.273438 204.070312 C 604.390625 204.191406 604.460938 204.539062 604.460938 205.132812 C 604.460938 206.050781 604.339844 206.609375 604.121094 206.808594 C 603.882812 207.019531 603.390625 207.121094 602.625 207.121094 L 580.585938 207.121094 C 579.921875 207.121094 579.597656 206.78125 579.597656 206.105469 C 579.597656 205.242188 579.683594 204.703125 579.855469 204.492188 C 580.023438 204.273438 580.5 204.027344 581.296875 203.734375 C 582.46875 203.339844 583.0625 202.835938 583.0625 202.230469 C 583.0625 201.605469 582.691406 200.160156 581.960938 197.886719 Z M 575.980469 173.949219 L 570.363281 194.808594 L 581.398438 194.808594 Z M 629.523438 204.097656 L 632.410156 204.097656 C 633.90625 204.097656 634.992188 203.789062 635.707031 203.15625 C 636.417969 202.523438 637.335938 201.066406 638.492188 198.785156 C 638.882812 197.90625 639.355469 197.367188 639.917969 197.183594 C 640.460938 196.988281 641.414062 196.898438 642.753906 196.898438 C 644.230469 196.898438 645.183594 196.960938 645.605469 197.101562 C 646.03125 197.238281 646.234375 197.484375 646.234375 197.839844 C 646.234375 198.089844 646.148438 198.492188 645.980469 199.050781 L 644.25 205.480469 C 644.042969 206.140625 643.789062 206.582031 643.46875 206.800781 C 643.160156 207.011719 642.515625 207.121094 641.546875 207.121094 L 608.789062 207.121094 C 607.398438 207.121094 606.703125 206.65625 606.703125 205.730469 C 606.703125 205.015625 606.785156 204.558594 606.972656 204.347656 C 607.160156 204.144531 607.550781 203.988281 608.144531 203.878906 C 610.03125 203.558594 610.980469 202.613281 610.980469 201.058594 L 610.980469 169.1875 C 610.980469 168.527344 610.371094 168.050781 609.164062 167.765625 C 608.128906 167.527344 607.5 167.273438 607.261719 166.988281 C 607.023438 166.695312 606.90625 166.21875 606.90625 165.558594 C 606.90625 164.769531 607.007812 164.277344 607.210938 164.09375 C 607.398438 163.902344 607.941406 163.808594 608.789062 163.808594 L 631.765625 163.808594 C 632.632812 163.808594 633.226562 163.917969 633.53125 164.148438 C 633.855469 164.367188 634.007812 164.972656 634.007812 165.960938 C 634.007812 166.558594 633.90625 166.953125 633.683594 167.164062 C 633.464844 167.363281 632.90625 167.546875 632.019531 167.710938 C 630.355469 168.015625 629.523438 168.609375 629.523438 169.480469 Z M 706.351562 163.09375 L 708.929688 163.09375 C 709.523438 163.09375 709.964844 163.214844 710.273438 163.460938 C 710.5625 163.699219 710.78125 164.351562 710.917969 165.402344 L 712.054688 174.03125 C 712.089844 174.207031 712.105469 174.378906 712.105469 174.546875 C 712.105469 175.167969 711.902344 175.609375 711.511719 175.855469 C 711.105469 176.101562 710.308594 176.230469 709.101562 176.230469 C 707.640625 176.230469 706.621094 176.03125 706.0625 175.617188 C 705.5 175.207031 704.941406 174.226562 704.414062 172.6875 C 703.089844 168.785156 701.1875 166.832031 698.726562 166.832031 C 696.671875 166.832031 695.652344 168.234375 695.652344 171.046875 L 695.652344 201.257812 C 695.652344 203.265625 696.738281 204.261719 698.894531 204.261719 C 701.628906 204.261719 703.175781 202.597656 703.496094 199.253906 C 703.597656 198.289062 703.9375 197.613281 704.550781 197.238281 C 705.144531 196.863281 706.367188 196.679688 708.21875 196.679688 C 709.609375 196.679688 710.578125 196.816406 711.136719 197.089844 C 711.683594 197.375 711.953125 197.914062 711.953125 198.710938 C 711.953125 201.269531 710.527344 203.394531 707.691406 205.078125 C 704.839844 206.773438 701.289062 207.617188 697.0625 207.617188 C 692.949219 207.617188 689.351562 206.910156 686.226562 205.5 C 683.117188 204.082031 680.4375 201.644531 678.160156 198.179688 C 675.902344 194.71875 674.765625 190.292969 674.765625 184.886719 C 674.765625 179.785156 675.714844 175.710938 677.617188 172.660156 C 679.519531 169.609375 681.949219 167.253906 684.902344 165.59375 C 687.855469 163.9375 691.304688 163.105469 695.242188 163.09375 C 697.621094 163.09375 699.691406 163.441406 701.441406 164.140625 C 702.105469 164.386719 702.597656 164.503906 702.9375 164.503906 C 703.328125 164.503906 703.886719 164.257812 704.617188 163.761719 C 705.246094 163.316406 705.824219 163.09375 706.351562 163.09375 Z M 706.351562 163.09375 "/>
<path fill-rule="evenodd" fill="rgb(6.27451%, 16.470589%, 51.372552%)" fill-opacity="1" d="M 740.890625 163.09375 C 745.78125 163.09375 749.992188 163.972656 753.558594 165.742188 C 757.125 167.5 760.046875 170.011719 762.304688 173.261719 C 764.5625 176.523438 765.683594 180.703125 765.683594 185.796875 C 765.683594 191.914062 763.492188 197.082031 759.09375 201.296875 C 754.695312 205.507812 748.5 207.617188 740.5 207.617188 C 732.910156 207.617188 726.914062 205.554688 722.53125 201.441406 C 718.152344 197.328125 715.960938 192.015625 715.960938 185.503906 C 715.960938 178.832031 718.203125 173.429688 722.703125 169.296875 C 727.203125 165.164062 733.265625 163.09375 740.890625 163.09375 Z M 744.796875 169.46875 C 744.796875 167.234375 743.472656 166.117188 740.804688 166.117188 C 739.683594 166.117188 738.714844 166.390625 737.933594 166.953125 C 737.136719 167.5 736.746094 168.1875 736.746094 168.984375 L 736.746094 201.378906 C 736.746094 202.46875 737.136719 203.292969 737.933594 203.859375 C 738.714844 204.417969 739.667969 204.703125 740.753906 204.703125 C 741.960938 204.703125 742.945312 204.390625 743.691406 203.757812 C 744.421875 203.136719 744.796875 202.441406 744.796875 201.671875 Z M 781.359375 196.511719 C 783.820312 196.511719 785.859375 197.035156 787.472656 198.070312 C 789.085938 199.117188 789.882812 200.390625 789.882812 201.917969 C 789.882812 203.367188 789.050781 204.65625 787.386719 205.800781 C 785.722656 206.9375 783.71875 207.507812 781.359375 207.507812 C 779.066406 207.507812 777.164062 207.003906 775.652344 205.984375 C 774.140625 204.976562 773.375 203.703125 773.375 202.183594 C 773.375 200.683594 774.089844 199.363281 775.515625 198.21875 C 776.941406 197.082031 778.894531 196.511719 781.359375 196.511719 Z M 781.359375 196.511719 "/>
</svg>
